PathFileType	3	(X/Y/Z)	D:\minhoCalibration\240510\subject2_KPNP\preferred\preferred12.trc
DataRate	CameraRate	NumFrames	NumMarkers	Units	OrigDataRate	OrigDataStartFrame	OrigNumFrames
200.0	200.0	15	10	mm	200.0	185	176	
Frame#	Time	Left_Ankle_Outer1			Left_Ankle_Inner1			Left_Knee_Outer1			Left_Knee_Inner1			Left_Wrist1			Right_Wrist1			Right_Knee_Inner1			Right_Knee_Outer1			Right_Ankle_Inner1			Right_Ankle_Outer1			
		X1	Y1	Z1	X2	Y2	Z2	X3	Y3	Z3	X4	Y4	Z4	X5	Y5	Z5	X6	Y6	Z6	X7	Y7	Z7	X8	Y8	Z8	X9	Y9	Z9	X10	Y10	Z10	
185	0.915	-660.81244	86.314674	-704.9613	-683.57397	89.518654	-652.48651	-475.40219	505.00388	-652.57294	-560.68494	487.4483	-594.10223	-589.54761	920.40967	-783.71808	-920.61633	953.50818	-849.80896	-974.5462	446.07169	-879.93347	-1035.5752	497.80109	-930.63623	-939.6803	117.88454	-1114.4631	-1017.7993	149.88486	-1168.9636
186	0.92	-659.52197	87.234673	-705.43585	-682.12726	89.255203	-653.90405	-473.05954	505.60898	-649.26019	-558.73566	488.00449	-592.39832	-585.57019	921.19336	-781.85107	-917.68835	954.33087	-842.91077	-978.53503	454.66251	-836.67114	-1038.8173	499.8205	-919.19598	-940.13104	123.147	-1110.2848	-1017.9644	155.77895	-1164.5902
187	0.925	-658.5708	87.574463	-705.67828	-681.87427	90.45507	-653.26685	-470.84613	506.28781	-646.75677	-556.52478	488.77332	-590.81854	-581.29889	922.2981	-780.21808	-914.69745	955.28625	-835.26337	-980.17065	449.4928	-855.04041	-1042.3221	502.0231	-907.12476	-941.64734	129.52159	-1104.8534	-1018.2948	162.63301	-1159.4453
188	0.93	-657.72473	87.781479	-706.26257	-681.28143	90.793312	-653.93695	-468.87515	506.69092	-645.112	-553.9978	489.50607	-589.44403	-576.57703	923.71448	-777.95795	-911.31329	956.81403	-828.30023	-984.224	459.12137	-813.52051	-1042.0936	504.13126	-890.92932	-941.66443	135.61147	-1099.6898	-1019.0091	169.78815	-1153.6566
189	0.935	-656.47107	87.95166	-706.95068	-680.1723	90.022392	-656.16461	-467.0152	506.91736	-644.28766	-551.19708	490.03418	-588.34723	-571.58649	925.93317	-776.06311	-907.59131	958.34137	-820.95435	-988.11609	460.33612	-801.40686	-1048.7437	507.59256	-880.65283	-943.85797	142.48604	-1093.019	-1019.9865	178.04239	-1146.8977
190	0.94	-656.02734	87.843323	-707.97888	-680.3255	90.82708	-655.77875	-465.27313	506.60886	-644.24591	-548.24103	490.1105	-587.51825	-567.67401	928.10797	-773.94769	-903.60931	960.07452	-813.49109	-990.58813	458.84085	-800.88184	-1052.3275	509.95053	-866.30035	-945.60846	149.94923	-1085.6379	-1021.1819	186.56615	-1139.1179
191	0.945	-655.50549	87.666451	-708.61389	-679.4082	90.000092	-657.80066	-463.48889	505.84167	-644.87219	-545.46167	489.98904	-585.95801	-562.8847	930.50427	-771.88556	-899.33124	961.97504	-805.86945	-991.6618	458.75793	-800.00507	-1053.7584	515.26886	-851.66211	-947.08612	158.1456	-1077.4762	-1022.5215	196.01405	-1130.6548
192	0.95	-655.04498	87.483963	-709.20148	-679.12201	90.049728	-658.30322	-461.55917	504.83716	-645.79419	-542.60614	488.98489	-585.83331	-558.13037	933.21057	-769.27258	-894.90002	964.06836	-798.34589	-992.27698	460.07938	-784.51575	-1055.8004	518.00159	-836.12738	-948.75653	166.22362	-1069.3881	-1024.2877	205.44299	-1121.3722
193	0.955	-654.55438	87.381485	-709.77539	-679.14209	90.885986	-657.78552	-459.76624	503.66235	-646.93658	-539.87262	487.75937	-586.03784	-552.90674	935.63623	-768.33179	-890.36377	966.37927	-790.84741	-993.53442	463.47311	-769.97113	-1058.2577	521.10614	-816.18079	-951.66351	174.64839	-1060.198	-1025.9897	216.16917	-1111.6228
194	0.96	-654.00049	87.266403	-710.28015	-678.45166	91.342995	-657.58893	-457.92801	502.48569	-648.10052	-537.36401	486.61731	-586.61072	-548.12701	938.2561	-766.13959	-885.72546	968.86847	-783.40924	-998.23193	470.82703	-753.24109	-1059.1088	526.27667	-800.55188	-952.39246	184.84782	-1050.9122	-1027.5854	227.24101	-1101.0031
195	0.965	-653.50201	87.233994	-710.7569	-678.27545	91.24334	-658.6756	-455.95767	501.40738	-649.242	-535.08093	485.75793	-587.40717	-543.45135	940.90833	-764.4975	-881.12958	971.59454	-775.95685	-993.51758	478.27307	-732.57574	-1058.8177	532.39642	-785.32776	-954.17841	193.82857	-1040.5349	-1029.1725	238.5833	-1089.6639
196	0.97	-653.14099	87.357895	-711.27856	-676.07196	89.511314	-663.14221	-453.88242	500.54663	-650.354	-533.08685	485.11926	-588.48395	-538.77826	943.24377	-763.82501	-876.41162	974.487	-768.26501	-988.89758	486.27319	-711.65955	-1058.475	539.32227	-770.04102	-956.32654	204.09103	-1029.8088	-1030.3613	250.46771	-1077.8362
197	0.975	-652.90497	87.449837	-711.68176	-677.92804	91.676743	-659.1391	-452.16638	499.4689	-651.60571	-531.26849	484.74316	-589.79156	-533.72052	946.31165	-762.15216	-871.73651	977.63666	-760.5777	-981.73987	493.36826	-689.23474	-1058.3535	543.96729	-749.70807	-957.11603	215.27077	-1018.7317	-1031.478	262.84045	-1065.5424
198	0.98	-652.59204	87.509804	-712.12054	-677.6839	92.438187	-658.78699	-450.31903	498.9024	-653.03357	-529.53046	484.33099	-591.73785	-529.00354	949.16461	-761.54474	-866.93439	980.91711	-752.53992	-994.00061	490.37451	-679.57086	-1056.698	550.0484	-732.15521	-957.42322	227.68835	-1007.5181	-1032.3115	275.88458	-1052.874
199	0.985	-652.39563	87.561577	-712.55945	-677.20984	92.415894	-658.97247	-448.72919	498.26312	-654.92535	-527.86615	484.17947	-593.74457	-524.22961	951.89148	-761.37793	-862.11005	984.38458	-744.3064	-991.44678	496.00531	-661.21478	-1055.1302	555.46313	-711.41089	-955.94739	241.2717	-996.66992	-1032.7699	289.38214	-1039.9395
